<svg xmlns="http://www.w3.org/2000/svg" width="1240" height="780" viewBox="0 0 1240 780">
<rect width="100%" height="100%" fill="white"/>
<style>text{font-family:Arial,sans-serif;fill:#222}.axis{stroke:#555;stroke-width:1}.grid{stroke:#ddd;stroke-width:1}.curve{fill:none;stroke-width:2.5}.point{stroke:white;stroke-width:1}</style>
<text x="620" y="28" text-anchor="middle" font-size="20" font-weight="bold">Budget-64 Express-Mesh: 3-seed standalone curves</text>
<text x="335.0" y="51" text-anchor="middle" font-size="16" font-weight="bold">Uniform: accepted throughput</text>
<line class="axis" x1="75" y1="65" x2="75" y2="335"/>
<line class="axis" x1="75" y1="335" x2="595" y2="335"/>
<line class="grid" x1="75.0" y1="65" x2="75.0" y2="335"/>
<text x="75.0" y="353" text-anchor="middle" font-size="11">0.1</text>
<line class="grid" x1="149.3" y1="65" x2="149.3" y2="335"/>
<text x="149.3" y="353" text-anchor="middle" font-size="11">0.2</text>
<line class="grid" x1="223.6" y1="65" x2="223.6" y2="335"/>
<text x="223.6" y="353" text-anchor="middle" font-size="11">0.3</text>
<line class="grid" x1="297.9" y1="65" x2="297.9" y2="335"/>
<text x="297.9" y="353" text-anchor="middle" font-size="11">0.4</text>
<line class="grid" x1="335.0" y1="65" x2="335.0" y2="335"/>
<text x="335.0" y="353" text-anchor="middle" font-size="11">0.45</text>
<line class="grid" x1="372.1" y1="65" x2="372.1" y2="335"/>
<text x="372.1" y="353" text-anchor="middle" font-size="11">0.5</text>
<line class="grid" x1="409.3" y1="65" x2="409.3" y2="335"/>
<text x="409.3" y="353" text-anchor="middle" font-size="11">0.55</text>
<line class="grid" x1="446.4" y1="65" x2="446.4" y2="335"/>
<text x="446.4" y="353" text-anchor="middle" font-size="11">0.6</text>
<line class="grid" x1="520.7" y1="65" x2="520.7" y2="335"/>
<text x="520.7" y="353" text-anchor="middle" font-size="11">0.7</text>
<line class="grid" x1="595.0" y1="65" x2="595.0" y2="335"/>
<text x="595.0" y="353" text-anchor="middle" font-size="11">0.8</text>
<line class="grid" x1="75" y1="335.0" x2="595" y2="335.0"/>
<text x="66" y="339.0" text-anchor="end" font-size="11">0.00</text>
<line class="grid" x1="75" y1="299.3" x2="595" y2="299.3"/>
<text x="66" y="303.3" text-anchor="end" font-size="11">0.05</text>
<line class="grid" x1="75" y1="263.5" x2="595" y2="263.5"/>
<text x="66" y="267.5" text-anchor="end" font-size="11">0.10</text>
<line class="grid" x1="75" y1="227.8" x2="595" y2="227.8"/>
<text x="66" y="231.8" text-anchor="end" font-size="11">0.15</text>
<line class="grid" x1="75" y1="192.0" x2="595" y2="192.0"/>
<text x="66" y="196.0" text-anchor="end" font-size="11">0.20</text>
<line class="grid" x1="75" y1="156.3" x2="595" y2="156.3"/>
<text x="66" y="160.3" text-anchor="end" font-size="11">0.25</text>
<line class="grid" x1="75" y1="120.5" x2="595" y2="120.5"/>
<text x="66" y="124.5" text-anchor="end" font-size="11">0.30</text>
<line class="grid" x1="75" y1="84.8" x2="595" y2="84.8"/>
<text x="66" y="88.8" text-anchor="end" font-size="11">0.35</text>
<text x="335.0" y="373" text-anchor="middle" font-size="12">Configured injection rate</text>
<polyline class="curve" stroke="#333333" points="75.0,299.2 149.3,263.5 223.6,227.8 297.9,192.1 335.0,174.2 372.1,156.4 409.3,146.9 446.4,145.5 520.7,145.1 595.0,144.7"/>
<circle class="point" fill="#333333" cx="75.0" cy="299.2" r="3.5"/>
<circle class="point" fill="#333333" cx="149.3" cy="263.5" r="3.5"/>
<circle class="point" fill="#333333" cx="223.6" cy="227.8" r="3.5"/>
<circle class="point" fill="#333333" cx="297.9" cy="192.1" r="3.5"/>
<circle class="point" fill="#333333" cx="335.0" cy="174.2" r="3.5"/>
<circle class="point" fill="#333333" cx="372.1" cy="156.4" r="3.5"/>
<circle class="point" fill="#333333" cx="409.3" cy="146.9" r="3.5"/>
<circle class="point" fill="#333333" cx="446.4" cy="145.5" r="3.5"/>
<circle class="point" fill="#333333" cx="520.7" cy="145.1" r="3.5"/>
<circle class="point" fill="#333333" cx="595.0" cy="144.7" r="3.5"/>
<polyline class="curve" stroke="#e69f00" points="75.0,299.2 149.3,263.5 223.6,227.8 297.9,192.1 335.0,174.2 372.1,156.4 409.3,138.6 446.4,120.7 520.7,96.4 595.0,101.4"/>
<circle class="point" fill="#e69f00" cx="75.0" cy="299.2" r="3.5"/>
<circle class="point" fill="#e69f00" cx="149.3" cy="263.5" r="3.5"/>
<circle class="point" fill="#e69f00" cx="223.6" cy="227.8" r="3.5"/>
<circle class="point" fill="#e69f00" cx="297.9" cy="192.1" r="3.5"/>
<circle class="point" fill="#e69f00" cx="335.0" cy="174.2" r="3.5"/>
<circle class="point" fill="#e69f00" cx="372.1" cy="156.4" r="3.5"/>
<circle class="point" fill="#e69f00" cx="409.3" cy="138.6" r="3.5"/>
<circle class="point" fill="#e69f00" cx="446.4" cy="120.7" r="3.5"/>
<circle class="point" fill="#e69f00" cx="520.7" cy="96.4" r="3.5"/>
<circle class="point" fill="#e69f00" cx="595.0" cy="101.4" r="3.5"/>
<polyline class="curve" stroke="#56b4e9" points="75.0,299.2 149.3,263.5 223.6,227.8 297.9,192.1 335.0,174.2 372.1,156.4 409.3,138.6 446.4,120.7 520.7,89.8 595.0,92.8"/>
<circle class="point" fill="#56b4e9" cx="75.0" cy="299.2" r="3.5"/>
<circle class="point" fill="#56b4e9" cx="149.3" cy="263.5" r="3.5"/>
<circle class="point" fill="#56b4e9" cx="223.6" cy="227.8" r="3.5"/>
<circle class="point" fill="#56b4e9" cx="297.9" cy="192.1" r="3.5"/>
<circle class="point" fill="#56b4e9" cx="335.0" cy="174.2" r="3.5"/>
<circle class="point" fill="#56b4e9" cx="372.1" cy="156.4" r="3.5"/>
<circle class="point" fill="#56b4e9" cx="409.3" cy="138.6" r="3.5"/>
<circle class="point" fill="#56b4e9" cx="446.4" cy="120.7" r="3.5"/>
<circle class="point" fill="#56b4e9" cx="520.7" cy="89.8" r="3.5"/>
<circle class="point" fill="#56b4e9" cx="595.0" cy="92.8" r="3.5"/>
<polyline class="curve" stroke="#009e73" points="75.0,299.2 149.3,263.5 223.6,227.8 297.9,192.1 335.0,174.2 372.1,156.4 409.3,138.6 446.4,120.7 520.7,85.0 595.0,92.2"/>
<circle class="point" fill="#009e73" cx="75.0" cy="299.2" r="3.5"/>
<circle class="point" fill="#009e73" cx="149.3" cy="263.5" r="3.5"/>
<circle class="point" fill="#009e73" cx="223.6" cy="227.8" r="3.5"/>
<circle class="point" fill="#009e73" cx="297.9" cy="192.1" r="3.5"/>
<circle class="point" fill="#009e73" cx="335.0" cy="174.2" r="3.5"/>
<circle class="point" fill="#009e73" cx="372.1" cy="156.4" r="3.5"/>
<circle class="point" fill="#009e73" cx="409.3" cy="138.6" r="3.5"/>
<circle class="point" fill="#009e73" cx="446.4" cy="120.7" r="3.5"/>
<circle class="point" fill="#009e73" cx="520.7" cy="85.0" r="3.5"/>
<circle class="point" fill="#009e73" cx="595.0" cy="92.2" r="3.5"/>
<text x="950.0" y="51" text-anchor="middle" font-size="16" font-weight="bold">CutStress: accepted throughput</text>
<line class="axis" x1="690" y1="65" x2="690" y2="335"/>
<line class="axis" x1="690" y1="335" x2="1210" y2="335"/>
<line class="grid" x1="690.0" y1="65" x2="690.0" y2="335"/>
<text x="690.0" y="353" text-anchor="middle" font-size="11">0.1</text>
<line class="grid" x1="764.3" y1="65" x2="764.3" y2="335"/>
<text x="764.3" y="353" text-anchor="middle" font-size="11">0.2</text>
<line class="grid" x1="838.6" y1="65" x2="838.6" y2="335"/>
<text x="838.6" y="353" text-anchor="middle" font-size="11">0.3</text>
<line class="grid" x1="875.7" y1="65" x2="875.7" y2="335"/>
<text x="875.7" y="353" text-anchor="middle" font-size="11">0.35</text>
<line class="grid" x1="912.9" y1="65" x2="912.9" y2="335"/>
<text x="912.9" y="353" text-anchor="middle" font-size="11">0.4</text>
<line class="grid" x1="987.1" y1="65" x2="987.1" y2="335"/>
<text x="987.1" y="353" text-anchor="middle" font-size="11">0.5</text>
<line class="grid" x1="1061.4" y1="65" x2="1061.4" y2="335"/>
<text x="1061.4" y="353" text-anchor="middle" font-size="11">0.6</text>
<line class="grid" x1="1210.0" y1="65" x2="1210.0" y2="335"/>
<text x="1210.0" y="353" text-anchor="middle" font-size="11">0.8</text>
<line class="grid" x1="690" y1="335.0" x2="1210" y2="335.0"/>
<text x="681" y="339.0" text-anchor="end" font-size="11">0.00</text>
<line class="grid" x1="690" y1="246.6" x2="1210" y2="246.6"/>
<text x="681" y="250.6" text-anchor="end" font-size="11">0.05</text>
<line class="grid" x1="690" y1="158.2" x2="1210" y2="158.2"/>
<text x="681" y="162.2" text-anchor="end" font-size="11">0.10</text>
<line class="grid" x1="690" y1="69.8" x2="1210" y2="69.8"/>
<text x="681" y="73.8" text-anchor="end" font-size="11">0.15</text>
<text x="950.0" y="373" text-anchor="middle" font-size="12">Configured injection rate</text>
<polyline class="curve" stroke="#333333" points="690.0,290.8 764.3,246.6 838.6,202.4 875.7,180.3 912.9,169.3 987.1,169.3 1061.4,169.3 1210.0,169.3"/>
<circle class="point" fill="#333333" cx="690.0" cy="290.8" r="3.5"/>
<circle class="point" fill="#333333" cx="764.3" cy="246.6" r="3.5"/>
<circle class="point" fill="#333333" cx="838.6" cy="202.4" r="3.5"/>
<circle class="point" fill="#333333" cx="875.7" cy="180.3" r="3.5"/>
<circle class="point" fill="#333333" cx="912.9" cy="169.3" r="3.5"/>
<circle class="point" fill="#333333" cx="987.1" cy="169.3" r="3.5"/>
<circle class="point" fill="#333333" cx="1061.4" cy="169.3" r="3.5"/>
<circle class="point" fill="#333333" cx="1210.0" cy="169.3" r="3.5"/>
<polyline class="curve" stroke="#e69f00" points="690.0,290.8 764.3,246.6 838.6,202.4 875.7,180.4 912.9,158.3 987.1,129.0 1061.4,106.7 1210.0,88.8"/>
<circle class="point" fill="#e69f00" cx="690.0" cy="290.8" r="3.5"/>
<circle class="point" fill="#e69f00" cx="764.3" cy="246.6" r="3.5"/>
<circle class="point" fill="#e69f00" cx="838.6" cy="202.4" r="3.5"/>
<circle class="point" fill="#e69f00" cx="875.7" cy="180.4" r="3.5"/>
<circle class="point" fill="#e69f00" cx="912.9" cy="158.3" r="3.5"/>
<circle class="point" fill="#e69f00" cx="987.1" cy="129.0" r="3.5"/>
<circle class="point" fill="#e69f00" cx="1061.4" cy="106.7" r="3.5"/>
<circle class="point" fill="#e69f00" cx="1210.0" cy="88.8" r="3.5"/>
<polyline class="curve" stroke="#56b4e9" points="690.0,290.8 764.3,246.6 838.6,202.4 875.7,180.4 912.9,159.1 987.1,131.4 1061.4,106.4 1210.0,93.2"/>
<circle class="point" fill="#56b4e9" cx="690.0" cy="290.8" r="3.5"/>
<circle class="point" fill="#56b4e9" cx="764.3" cy="246.6" r="3.5"/>
<circle class="point" fill="#56b4e9" cx="838.6" cy="202.4" r="3.5"/>
<circle class="point" fill="#56b4e9" cx="875.7" cy="180.4" r="3.5"/>
<circle class="point" fill="#56b4e9" cx="912.9" cy="159.1" r="3.5"/>
<circle class="point" fill="#56b4e9" cx="987.1" cy="131.4" r="3.5"/>
<circle class="point" fill="#56b4e9" cx="1061.4" cy="106.4" r="3.5"/>
<circle class="point" fill="#56b4e9" cx="1210.0" cy="93.2" r="3.5"/>
<polyline class="curve" stroke="#009e73" points="690.0,290.8 764.3,246.6 838.6,202.4 875.7,180.4 912.9,158.3 987.1,125.3 1061.4,104.3 1210.0,85.0"/>
<circle class="point" fill="#009e73" cx="690.0" cy="290.8" r="3.5"/>
<circle class="point" fill="#009e73" cx="764.3" cy="246.6" r="3.5"/>
<circle class="point" fill="#009e73" cx="838.6" cy="202.4" r="3.5"/>
<circle class="point" fill="#009e73" cx="875.7" cy="180.4" r="3.5"/>
<circle class="point" fill="#009e73" cx="912.9" cy="158.3" r="3.5"/>
<circle class="point" fill="#009e73" cx="987.1" cy="125.3" r="3.5"/>
<circle class="point" fill="#009e73" cx="1061.4" cy="104.3" r="3.5"/>
<circle class="point" fill="#009e73" cx="1210.0" cy="85.0" r="3.5"/>
<text x="335.0" y="416" text-anchor="middle" font-size="16" font-weight="bold">Uniform: packet latency (log scale)</text>
<line class="axis" x1="75" y1="430" x2="75" y2="700"/>
<line class="axis" x1="75" y1="700" x2="595" y2="700"/>
<line class="grid" x1="75.0" y1="430" x2="75.0" y2="700"/>
<text x="75.0" y="718" text-anchor="middle" font-size="11">0.1</text>
<line class="grid" x1="149.3" y1="430" x2="149.3" y2="700"/>
<text x="149.3" y="718" text-anchor="middle" font-size="11">0.2</text>
<line class="grid" x1="223.6" y1="430" x2="223.6" y2="700"/>
<text x="223.6" y="718" text-anchor="middle" font-size="11">0.3</text>
<line class="grid" x1="297.9" y1="430" x2="297.9" y2="700"/>
<text x="297.9" y="718" text-anchor="middle" font-size="11">0.4</text>
<line class="grid" x1="335.0" y1="430" x2="335.0" y2="700"/>
<text x="335.0" y="718" text-anchor="middle" font-size="11">0.45</text>
<line class="grid" x1="372.1" y1="430" x2="372.1" y2="700"/>
<text x="372.1" y="718" text-anchor="middle" font-size="11">0.5</text>
<line class="grid" x1="409.3" y1="430" x2="409.3" y2="700"/>
<text x="409.3" y="718" text-anchor="middle" font-size="11">0.55</text>
<line class="grid" x1="446.4" y1="430" x2="446.4" y2="700"/>
<text x="446.4" y="718" text-anchor="middle" font-size="11">0.6</text>
<line class="grid" x1="520.7" y1="430" x2="520.7" y2="700"/>
<text x="520.7" y="718" text-anchor="middle" font-size="11">0.7</text>
<line class="grid" x1="595.0" y1="430" x2="595.0" y2="700"/>
<text x="595.0" y="718" text-anchor="middle" font-size="11">0.8</text>
<line class="grid" x1="75" y1="700.0" x2="595" y2="700.0"/>
<text x="66" y="704.0" text-anchor="end" font-size="11">10</text>
<line class="grid" x1="75" y1="632.5" x2="595" y2="632.5"/>
<text x="66" y="636.5" text-anchor="end" font-size="11">100</text>
<line class="grid" x1="75" y1="565.0" x2="595" y2="565.0"/>
<text x="66" y="569.0" text-anchor="end" font-size="11">1000</text>
<line class="grid" x1="75" y1="497.5" x2="595" y2="497.5"/>
<text x="66" y="501.5" text-anchor="end" font-size="11">10000</text>
<line class="grid" x1="75" y1="430.0" x2="595" y2="430.0"/>
<text x="66" y="434.0" text-anchor="end" font-size="11">100000</text>
<text x="335.0" y="738" text-anchor="middle" font-size="12">Configured injection rate</text>
<polyline class="curve" stroke="#333333" points="75.0,686.8 149.3,686.4 223.6,685.7 297.9,684.3 335.0,682.4 372.1,671.9 409.3,537.0 446.4,509.1 520.7,490.9 595.0,481.4"/>
<circle class="point" fill="#333333" cx="75.0" cy="686.8" r="3.5"/>
<circle class="point" fill="#333333" cx="149.3" cy="686.4" r="3.5"/>
<circle class="point" fill="#333333" cx="223.6" cy="685.7" r="3.5"/>
<circle class="point" fill="#333333" cx="297.9" cy="684.3" r="3.5"/>
<circle class="point" fill="#333333" cx="335.0" cy="682.4" r="3.5"/>
<circle class="point" fill="#333333" cx="372.1" cy="671.9" r="3.5"/>
<circle class="point" fill="#333333" cx="409.3" cy="537.0" r="3.5"/>
<circle class="point" fill="#333333" cx="446.4" cy="509.1" r="3.5"/>
<circle class="point" fill="#333333" cx="520.7" cy="490.9" r="3.5"/>
<circle class="point" fill="#333333" cx="595.0" cy="481.4" r="3.5"/>
<polyline class="curve" stroke="#e69f00" points="75.0,693.7 149.3,693.1 223.6,692.5 297.9,691.6 335.0,691.1 372.1,690.5 409.3,689.6 446.4,688.1 520.7,536.0 595.0,496.9"/>
<circle class="point" fill="#e69f00" cx="75.0" cy="693.7" r="3.5"/>
<circle class="point" fill="#e69f00" cx="149.3" cy="693.1" r="3.5"/>
<circle class="point" fill="#e69f00" cx="223.6" cy="692.5" r="3.5"/>
<circle class="point" fill="#e69f00" cx="297.9" cy="691.6" r="3.5"/>
<circle class="point" fill="#e69f00" cx="335.0" cy="691.1" r="3.5"/>
<circle class="point" fill="#e69f00" cx="372.1" cy="690.5" r="3.5"/>
<circle class="point" fill="#e69f00" cx="409.3" cy="689.6" r="3.5"/>
<circle class="point" fill="#e69f00" cx="446.4" cy="688.1" r="3.5"/>
<circle class="point" fill="#e69f00" cx="520.7" cy="536.0" r="3.5"/>
<circle class="point" fill="#e69f00" cx="595.0" cy="496.9" r="3.5"/>
<polyline class="curve" stroke="#56b4e9" points="75.0,694.7 149.3,694.1 223.6,693.4 297.9,692.7 335.0,692.2 372.1,691.6 409.3,690.9 446.4,689.9 520.7,559.6 595.0,499.2"/>
<circle class="point" fill="#56b4e9" cx="75.0" cy="694.7" r="3.5"/>
<circle class="point" fill="#56b4e9" cx="149.3" cy="694.1" r="3.5"/>
<circle class="point" fill="#56b4e9" cx="223.6" cy="693.4" r="3.5"/>
<circle class="point" fill="#56b4e9" cx="297.9" cy="692.7" r="3.5"/>
<circle class="point" fill="#56b4e9" cx="335.0" cy="692.2" r="3.5"/>
<circle class="point" fill="#56b4e9" cx="372.1" cy="691.6" r="3.5"/>
<circle class="point" fill="#56b4e9" cx="409.3" cy="690.9" r="3.5"/>
<circle class="point" fill="#56b4e9" cx="446.4" cy="689.9" r="3.5"/>
<circle class="point" fill="#56b4e9" cx="520.7" cy="559.6" r="3.5"/>
<circle class="point" fill="#56b4e9" cx="595.0" cy="499.2" r="3.5"/>
<polyline class="curve" stroke="#009e73" points="75.0,694.7 149.3,694.2 223.6,693.5 297.9,692.8 335.0,692.3 372.1,691.8 409.3,691.2 446.4,690.4 520.7,685.7 595.0,506.8"/>
<circle class="point" fill="#009e73" cx="75.0" cy="694.7" r="3.5"/>
<circle class="point" fill="#009e73" cx="149.3" cy="694.2" r="3.5"/>
<circle class="point" fill="#009e73" cx="223.6" cy="693.5" r="3.5"/>
<circle class="point" fill="#009e73" cx="297.9" cy="692.8" r="3.5"/>
<circle class="point" fill="#009e73" cx="335.0" cy="692.3" r="3.5"/>
<circle class="point" fill="#009e73" cx="372.1" cy="691.8" r="3.5"/>
<circle class="point" fill="#009e73" cx="409.3" cy="691.2" r="3.5"/>
<circle class="point" fill="#009e73" cx="446.4" cy="690.4" r="3.5"/>
<circle class="point" fill="#009e73" cx="520.7" cy="685.7" r="3.5"/>
<circle class="point" fill="#009e73" cx="595.0" cy="506.8" r="3.5"/>
<text x="950.0" y="416" text-anchor="middle" font-size="16" font-weight="bold">CutStress: packet latency (log scale)</text>
<line class="axis" x1="690" y1="430" x2="690" y2="700"/>
<line class="axis" x1="690" y1="700" x2="1210" y2="700"/>
<line class="grid" x1="690.0" y1="430" x2="690.0" y2="700"/>
<text x="690.0" y="718" text-anchor="middle" font-size="11">0.1</text>
<line class="grid" x1="764.3" y1="430" x2="764.3" y2="700"/>
<text x="764.3" y="718" text-anchor="middle" font-size="11">0.2</text>
<line class="grid" x1="838.6" y1="430" x2="838.6" y2="700"/>
<text x="838.6" y="718" text-anchor="middle" font-size="11">0.3</text>
<line class="grid" x1="875.7" y1="430" x2="875.7" y2="700"/>
<text x="875.7" y="718" text-anchor="middle" font-size="11">0.35</text>
<line class="grid" x1="912.9" y1="430" x2="912.9" y2="700"/>
<text x="912.9" y="718" text-anchor="middle" font-size="11">0.4</text>
<line class="grid" x1="987.1" y1="430" x2="987.1" y2="700"/>
<text x="987.1" y="718" text-anchor="middle" font-size="11">0.5</text>
<line class="grid" x1="1061.4" y1="430" x2="1061.4" y2="700"/>
<text x="1061.4" y="718" text-anchor="middle" font-size="11">0.6</text>
<line class="grid" x1="1210.0" y1="430" x2="1210.0" y2="700"/>
<text x="1210.0" y="718" text-anchor="middle" font-size="11">0.8</text>
<line class="grid" x1="690" y1="700.0" x2="1210" y2="700.0"/>
<text x="681" y="704.0" text-anchor="end" font-size="11">10</text>
<line class="grid" x1="690" y1="632.5" x2="1210" y2="632.5"/>
<text x="681" y="636.5" text-anchor="end" font-size="11">100</text>
<line class="grid" x1="690" y1="565.0" x2="1210" y2="565.0"/>
<text x="681" y="569.0" text-anchor="end" font-size="11">1000</text>
<line class="grid" x1="690" y1="497.5" x2="1210" y2="497.5"/>
<text x="681" y="501.5" text-anchor="end" font-size="11">10000</text>
<line class="grid" x1="690" y1="430.0" x2="1210" y2="430.0"/>
<text x="681" y="434.0" text-anchor="end" font-size="11">100000</text>
<text x="950.0" y="738" text-anchor="middle" font-size="12">Configured injection rate</text>
<polyline class="curve" stroke="#333333" points="690.0,692.0 764.3,691.2 838.6,688.8 875.7,681.5 912.9,524.1 987.1,492.9 1061.4,479.7 1210.0,470.8"/>
<circle class="point" fill="#333333" cx="690.0" cy="692.0" r="3.5"/>
<circle class="point" fill="#333333" cx="764.3" cy="691.2" r="3.5"/>
<circle class="point" fill="#333333" cx="838.6" cy="688.8" r="3.5"/>
<circle class="point" fill="#333333" cx="875.7" cy="681.5" r="3.5"/>
<circle class="point" fill="#333333" cx="912.9" cy="524.1" r="3.5"/>
<circle class="point" fill="#333333" cx="987.1" cy="492.9" r="3.5"/>
<circle class="point" fill="#333333" cx="1061.4" cy="479.7" r="3.5"/>
<circle class="point" fill="#333333" cx="1210.0" cy="470.8" r="3.5"/>
<polyline class="curve" stroke="#e69f00" points="690.0,698.0 764.3,697.3 838.6,696.2 875.7,695.2 912.9,688.4 987.1,531.1 1061.4,512.2 1210.0,487.4"/>
<circle class="point" fill="#e69f00" cx="690.0" cy="698.0" r="3.5"/>
<circle class="point" fill="#e69f00" cx="764.3" cy="697.3" r="3.5"/>
<circle class="point" fill="#e69f00" cx="838.6" cy="696.2" r="3.5"/>
<circle class="point" fill="#e69f00" cx="875.7" cy="695.2" r="3.5"/>
<circle class="point" fill="#e69f00" cx="912.9" cy="688.4" r="3.5"/>
<circle class="point" fill="#e69f00" cx="987.1" cy="531.1" r="3.5"/>
<circle class="point" fill="#e69f00" cx="1061.4" cy="512.2" r="3.5"/>
<circle class="point" fill="#e69f00" cx="1210.0" cy="487.4" r="3.5"/>
<polyline class="curve" stroke="#56b4e9" points="690.0,698.2 764.3,697.4 838.6,696.4 875.7,695.0 912.9,597.9 987.1,529.0 1061.4,515.5 1210.0,486.5"/>
<circle class="point" fill="#56b4e9" cx="690.0" cy="698.2" r="3.5"/>
<circle class="point" fill="#56b4e9" cx="764.3" cy="697.4" r="3.5"/>
<circle class="point" fill="#56b4e9" cx="838.6" cy="696.4" r="3.5"/>
<circle class="point" fill="#56b4e9" cx="875.7" cy="695.0" r="3.5"/>
<circle class="point" fill="#56b4e9" cx="912.9" cy="597.9" r="3.5"/>
<circle class="point" fill="#56b4e9" cx="987.1" cy="529.0" r="3.5"/>
<circle class="point" fill="#56b4e9" cx="1061.4" cy="515.5" r="3.5"/>
<circle class="point" fill="#56b4e9" cx="1210.0" cy="486.5" r="3.5"/>
<polyline class="curve" stroke="#009e73" points="690.0,698.2 764.3,697.5 838.6,696.7 875.7,696.1 912.9,694.6 987.1,538.3 1061.4,513.8 1210.0,490.0"/>
<circle class="point" fill="#009e73" cx="690.0" cy="698.2" r="3.5"/>
<circle class="point" fill="#009e73" cx="764.3" cy="697.5" r="3.5"/>
<circle class="point" fill="#009e73" cx="838.6" cy="696.7" r="3.5"/>
<circle class="point" fill="#009e73" cx="875.7" cy="696.1" r="3.5"/>
<circle class="point" fill="#009e73" cx="912.9" cy="694.6" r="3.5"/>
<circle class="point" fill="#009e73" cx="987.1" cy="538.3" r="3.5"/>
<circle class="point" fill="#009e73" cx="1061.4" cy="513.8" r="3.5"/>
<circle class="point" fill="#009e73" cx="1210.0" cy="490.0" r="3.5"/>
<line x1="260" y1="752" x2="288" y2="752" stroke="#333333" stroke-width="3"/>
<text x="295" y="757" font-size="13">Mesh XY</text>
<line x1="465" y1="752" x2="493" y2="752" stroke="#e69f00" stroke-width="3"/>
<text x="500" y="757" font-size="13">Stride Random</text>
<line x1="670" y1="752" x2="698" y2="752" stroke="#56b4e9" stroke-width="3"/>
<text x="705" y="757" font-size="13">ASPL Greedy</text>
<line x1="875" y1="752" x2="903" y2="752" stroke="#009e73" stroke-width="3"/>
<text x="910" y="757" font-size="13">Stride-ASPL Greedy</text>
</svg>
